@startuml

    !include lexakai.theme
    
    title "com.telenav.kivakit.coreinterfaces.lifecycle"
    
    interface Configured<T>
    {
        --(configuration)--
        +void configure(T configuration)
    }
    
    interface Initializable
    {
        --(lifecycle)--
        +void initialize()
        +T initialize(T object)
        +void onInitialize()
    }
    
    interface Operation
    {
        --(lifecycle)--
        +boolean isRunning()
    }
    
    interface Operation
    Operation <|-- Pausable
    interface Pausable
    {
        --(checks)--
        +boolean isPaused()
        --(lifecycle)--
        +void pause()
        +void resume()
    }
    
    interface Resettable
    {
        --(lifecycle)--
        +void reset()
    }
    
    interface Operation
    Operation <|-- Startable
    interface Startable
    {
        --(lifecycle)--
        +boolean start()
    }
    
    interface Operation
    Operation <|-- Stoppable
    interface Stoppable
    {
        --(lifecycle)--
        +void stop(Duration wait)
        +void stop()
    }
    
@enduml

