@startuml

    !include lexakai.theme
    
    title "com.telenav.kivakit.corelanguage.collections.set"
    
    abstract BaseSet
    
    interface Sized
    interface AsString
    interface Set
    interface Addable
    interface NewInstance
    
    Set <|-- BaseSet
    NewInstance <|-- BaseSet
    Sized <|-- BaseSet
    Addable <|-- BaseSet
    AsString <|-- BaseSet
    abstract class BaseSet<Element>
    {
        --(constructors)--
        #BaseSet()
        +BaseSet(Maximum)
        +BaseSet(Maximum, Set<Element>)
        +BaseSet(Set<Element>)
        --
        +BaseSet<Element> matching(Matcher<Element>)
        +BaseSet<Element> with(Collection<Element> that)
        --(collection)--
        +void addAll(Element[] objects)
        +void addAllMatching(Collection<Element> values, Matcher<Element>)
        +Element first()
        +Iterable<Element> matchingAsIterable(Matcher<Element>)
        +Count maximumSize()
        #boolean checkSize(int increase)
        --(filesystem)--
        +BaseSet<Element> copy()
    }
    
    BaseSet <|-- ObjectSet
    class ObjectSet<T>
    {
        --(constructors)--
        +ObjectSet()
        +ObjectSet(Maximum)
        +ObjectSet(Maximum, Set<T>)
        +ObjectSet(Set<T>)
        --
        +ObjectSet<T> objectSet(T... objects)
        +ObjectSet<T> objectSet(Collection<T> objects)
        --(collection)--
        +ObjectSet<T> addIfNotNull(T object)
        +ObjectSet<T> emptyObjectSet()
    }
    
    class Sets
    {
        --
        +Set<T> identitySet()
        +Set<T> matching(Set<T> values, Matcher<T>)
        +Set<T> nonNull(Set<T>)
        +Set<T> of(T... list)
        +Set<T> union(Set<T> a, Set<T> b)
        --(collection)--
        +Set<T> empty()
        +T first(Set<T>)
        +Set<T> fromIterable(Iterable<T>)
        +HashSet<T> hashset(Collection<T>)
        +HashSet<T> hashset(T... values)
        --(filesystem)--
        +Set<Value> copy(Factory<Set<Value>>, Set<Value>)
        +Set<Value> deepCopy(Factory<Set<Value>>, Set<Value>, Function<Value,Value> clone)
    }
    
@enduml

